<svg   width="36" height="36" viewBox="0 2 24 24" fill="none" xmlns="http://www.w3.org/2000/svg">
  <path d="M20.317 4.3698C18.8388 3.63323 17.2768 3.08237 15.6522 2.7378C15.5742 2.72147 15.4968 2.75413 15.4518 2.82303C15.0569 3.4476 14.6176 4.18203 14.2982 4.73837C12.9142 4.52747 11.4942 4.52747 10.107 4.73837C9.78897 4.16503 9.33297 3.4476 8.94817 2.82303C8.90317 2.75413 8.82577 2.72147 8.74777 2.7378C7.11577 3.0816 5.55377 3.63247 4.07557 4.3698C4.04077 4.38613 4.01197 4.4127 3.99277 4.4466C1.57757 8.2998 0.742769 12.058 1.09237 15.766C1.09237 15.806 1.11477 15.8438 1.14717 15.8699C3.12377 17.2955 5.04837 18.1444 6.92237 18.7433C6.99977 18.7694 7.08117 18.7406 7.12377 18.6699C7.59977 17.841 8.02377 16.9614 8.38377 16.0411C8.45177 16.0238 8.52377 16.0075 8.59577 15.9911C8.55677 16.0289 8.51897 16.0666 8.48097 16.1034C8.47257 16.1114 8.46377 16.1194 8.45497 16.1284C8.46377 16.1194 8.47257 16.1114 8.48097 16.1034C9.36777 16.377 10.2888 16.5849 11.2238 16.7209C11.512 16.7677 11.8036 16.8036 12.0964 16.8285C12.1188 16.8306 12.1418 16.8338 12.1648 16.8358C12.6158 16.8784 13.0708 16.9019 13.5268 16.9038C14.0318 16.9048 14.533 16.8658 15.0278 16.7959C15.5358 16.7288 16.0364 16.6334 16.5224 16.5106C17.0052 16.3897 17.4768 16.2392 17.9338 16.0611C18.0452 16.0151 18.1504 15.9595 18.2492 15.8944C18.6318 16.8147 19.0668 17.6943 19.5418 18.5222C19.5808 18.5892 19.661 18.6209 19.7378 18.5985C21.6198 18.0006 23.5458 17.1527 25.5204 15.7276C25.5546 15.7033 25.5778 15.6644 25.5828 15.6228C25.9888 11.6691 24.8484 7.93804 22.0004 4.44535C21.9828 4.421 21.9576 4.40472 21.9306 4.39767C21.6644 4.30229 21.3972 4.20495 21.1268 4.113C20.867 4.0288 20.606 3.95044 20.344 3.87956C20.3352 3.87763 20.3262 3.87557 20.317 3.87361V4.3698ZM9.32497 10.5496C10.0834 10.5496 10.7074 11.2188 10.7074 12.0172C10.7074 12.8156 10.0834 13.4848 9.32497 13.4848C8.56657 13.4848 7.94257 12.8156 7.94257 12.0172C7.94257 11.2188 8.56657 10.5496 9.32497 10.5496ZM15.0008 10.5496C15.7592 10.5496 16.3832 11.2188 16.3832 12.0172C16.3832 12.8156 15.7592 13.4848 15.0008 13.4848C14.2424 13.4848 13.6184 12.8156 13.6184 12.0172C13.6184 11.2188 14.2424 10.5496 15.0008 10.5496Z" fill="#000000"/>
</svg>
